<svg xmlns="http://www.w3.org/2000/svg" version="1.1" xmlns:xlink="http://www.w3.org/1999/xlink" width="1000" height="1000"><style>
    #light-icon {
      display: inline;
    }
    #dark-icon {
      display: none;
    }

    @media (prefers-color-scheme: dark) {
      #light-icon {
        display: none;
      }
      #dark-icon {
        display: inline;
      }
    }
  </style><g id="light-icon"><svg xmlns="http://www.w3.org/2000/svg" version="1.1" xmlns:xlink="http://www.w3.org/1999/xlink" width="1000" height="1000"><g clip-path="url(#SvgjsClipPath1172)"><rect width="1000" height="1000" fill="#ffffff"></rect><g transform="matrix(1.1574074074074074,0,0,1.1574074074074074,0,0)"><svg xmlns="http://www.w3.org/2000/svg" version="1.1" xmlns:xlink="http://www.w3.org/1999/xlink" width="864" height="864"><svg version="1.1" xmlns="http://www.w3.org/2000/svg" width="864" height="864">
<path d="M0 0 C285.12 0 570.24 0 864 0 C864 285.12 864 570.24 864 864 C578.88 864 293.76 864 0 864 C0 578.88 0 293.76 0 0 Z " fill="#CCFAF0" transform="translate(0,0)"></path>
<path d="M0 0 C285.12 0 570.24 0 864 0 C864 285.12 864 570.24 864 864 C578.88 864 293.76 864 0 864 C0 578.88 0 293.76 0 0 Z M391 19 C389.94828613 19.11827148 388.89657227 19.23654297 387.81298828 19.35839844 C360.47889717 22.44127914 333.08024644 28.17054884 307 37 C306.18515137 37.27215332 305.37030273 37.54430664 304.53076172 37.82470703 C271.51174511 48.97765745 237.10941679 63.65194715 209.078125 84.625 C206.80801094 86.12703036 204.55248129 87.07182499 202 88 C202 88.66 202 89.32 202 90 C201.46761719 90.24234375 200.93523437 90.4846875 200.38671875 90.734375 C184.64181496 99.08355475 170.63246073 112.41295785 157.6875 124.49609375 C155.18050305 126.83182783 152.63079468 129.10716287 150.0625 131.375 C145.40421685 135.54491476 141.01068823 139.94792133 136.62548828 144.40039062 C133.83505043 147.22002588 131.03906687 149.89241536 127.9375 152.375 C125.2141975 154.80858947 123.86275818 156.80946355 122.21875 160.01953125 C120.03748759 163.56408266 117.07210979 166.45582745 114.25 169.49609375 C111.70507826 172.32820284 109.47217029 175.29117222 107.2890625 178.40625 C106 180 106 180 103 182 C101.96052528 183.78268846 101.96052528 183.78268846 101.125 185.8125 C99.29424553 189.67435565 97.07284001 191.99862139 94 195 C89.07564736 201.34839281 85.53753054 207.38740837 83 215 C82.01 215.33 81.02 215.66 80 216 C78.86367134 217.92359275 78.86367134 217.92359275 78 220.25 C76.57146966 223.70594455 74.94005155 226.79891494 73 230 C73 230.66 73 231.32 73 232 C72.34 232 71.68 232 71 232 C70.70609375 232.804375 70.70609375 232.804375 70.40625 233.625 C68.36311515 238.97942235 65.98774908 244.09077212 63.375 249.1875 C27.33112381 320.25369707 13.70846425 402.21450766 23.68017578 481.18701172 C24.09783654 484.86051347 24.24891058 488.49269781 24.375 492.1875 C24.94146747 503.60496659 27.68023145 514.83443636 30 526 C30.66 526 31.32 526 32 526 C32.15456665 526.97138916 32.15456665 526.97138916 32.31225586 527.96240234 C33.5632137 535.355202 35.40517482 542.44864542 37.5625 549.625 C38.09194214 551.3877124 38.09194214 551.3877124 38.63208008 553.18603516 C47.89584856 583.57901916 60.08125255 612.48526842 76 640 C76.41765625 640.72380859 76.8353125 641.44761719 77.265625 642.19335938 C87.77624266 660.29687454 99.67217025 677.91552367 113.29296875 693.8359375 C114.87050773 695.83583818 115.88002659 697.73083647 117 700 C117.721875 700.5775 118.44375 701.155 119.1875 701.75 C122.95809514 704.76647611 125.86969104 708.3383707 129 712 C139.90371342 724.66237687 151.67564731 736.97689235 164.87890625 747.24609375 C166.79424334 748.82986235 168.24194285 750.3515439 169.75 752.3125 C171.79779445 754.7584767 172.92411009 755.67369194 175.625 757.125 C178.85334816 758.91852675 179.93366936 760.1071371 182 763 C182.99 763 183.98 763 185 763 C185.33 763.99 185.66 764.98 186 766 C186.99 766 187.98 766 189 766 C189.33 766.99 189.66 767.98 190 769 C192.0171818 770.80850782 193.47449941 771.8763528 196.125 772.5 C198 773 198 773 200 776 C200.99 776 201.98 776 203 776 C203 776.66 203 777.32 203 778 C204.269553 778.64834654 205.54069706 779.29357815 206.8125 779.9375 C207.87404297 780.47697266 207.87404297 780.47697266 208.95703125 781.02734375 C211.11810285 782.10730516 211.11810285 782.10730516 214 783 C214.33 783.99 214.66 784.98 215 786 C216.59542867 786.72051617 218.19844661 787.42712184 219.828125 788.06640625 C224.25580449 789.96967135 228.33924969 792.58098375 232.5 795 C278.96621056 821.53834957 330.09061942 837.78785482 383 845 C384.16998535 845.16516113 385.3399707 845.33032227 386.54541016 845.50048828 C404.46862383 847.93643313 422.3122119 848.30588404 440.375 848.375 C441.45985687 848.38294586 442.54471375 848.39089172 443.66244507 848.39907837 C459.64971717 848.48909253 475.17990842 847.28778262 491 845 C491.73432251 844.89540466 492.46864502 844.79080933 493.22521973 844.68304443 C546.2522387 837.02081571 599.41965239 820.32494724 645.46875 792.453125 C647.92327946 791.04404327 650.34858309 789.97987147 653 789 C653 788.34 653 787.68 653 787 C653.68320312 786.76152344 654.36640625 786.52304687 655.0703125 786.27734375 C658.60511866 784.73616826 661.69709372 782.71951585 664.875 780.5625 C665.52847412 780.12220459 666.18194824 779.68190918 666.85522461 779.22827148 C681.78794413 769.09018308 696.46799743 758.28230024 709.76171875 746.0546875 C711.87039527 744.11897397 714.01786328 742.24180024 716.1875 740.375 C719.39261772 737.58906267 722.38026634 734.64507892 725.3515625 731.61328125 C727 730 727 730 730 727.5625 C732.93089334 725.05902861 735.27922676 722.47334373 737.765625 719.546875 C740.09041004 716.8969452 742.49938463 714.3475062 744.92871094 711.79394531 C751.63977844 704.72303505 757.8374221 697.43510134 763.72509766 689.66894531 C764.95858662 688.05421331 766.21912451 686.46025535 767.48046875 684.8671875 C789.82863912 656.51450077 807.7563985 624.04398169 821.6875 590.8125 C822.12191406 589.77851074 822.55632813 588.74452148 823.00390625 587.67919922 C825.26404582 582.50513344 825.26404582 582.50513344 826 577 C826.66 577 827.32 577 828 577 C828.680625 575.2984375 828.680625 575.2984375 829.375 573.5625 C829.63023437 572.92441406 829.88546875 572.28632812 830.1484375 571.62890625 C830.88397253 569.35819489 831.42289267 567.16962456 831.921875 564.83984375 C833.00274569 559.81797606 834.42186741 554.92476149 835.875 550 C837.86125771 543.15844565 839.73988985 536.30944307 841.375 529.375 C841.54241699 528.67117188 841.70983398 527.96734375 841.88232422 527.2421875 C842.53263217 524.419753 843 521.90766538 843 519 C843.66 519 844.32 519 845 519 C847.47465133 507.4846225 848.77534586 496.07564178 849.69726562 484.34521484 C849.92478476 481.83112845 850.19031564 479.33605543 850.49023438 476.83056641 C852.19599008 462.18142965 852.39754838 447.61245501 852.375 432.875 C852.37468277 430.95879349 852.37468277 430.95879349 852.37435913 429.00387573 C852.34086529 408.69438486 851.36970764 389.02859672 848 369 C847.71914551 367.24067139 847.71914551 367.24067139 847.43261719 365.44580078 C840.67464156 323.56152522 827.84128996 282.66209889 808.06738281 245.04931641 C806.87315955 242.75647329 805.71387594 240.44746348 804.5546875 238.13671875 C796.05645015 221.35451181 786.44415048 205.0551881 774.671875 190.33984375 C772.97037596 187.95854019 772.05728803 185.7129561 771 183 C768.86387112 180.69955351 766.65707168 178.58406371 764.3125 176.5 C763 175 763 175 762.0625 172.4375 C760.77472124 169.48318403 759.79155422 169.35075204 757 168 C756.88011719 167.39800781 756.76023437 166.79601562 756.63671875 166.17578125 C755.76968392 163.21296897 754.24513412 162.19431341 751.875 160.25 C748.11641611 157.04449887 744.87792105 153.72068605 741.69921875 149.94921875 C739.43871953 147.35614033 736.98214821 144.99918779 734.48046875 142.640625 C733 141 733 141 732.17578125 139.046875 C730.45794805 136.05636138 727.87132202 134.86162637 725 133 C723.22886946 131.31384124 721.5003288 129.58203912 719.8125 127.8125 C715.38812718 123.26828303 710.75758605 119.18429383 705.7890625 115.23046875 C702.95174421 112.96140889 700.19819637 110.6114221 697.4375 108.25 C653.26692203 71.46960882 600.80533358 47.05408762 546 31 C544.17125385 30.46174132 542.34309388 29.92148565 540.515625 29.37890625 C539.7412207 29.15017822 538.96681641 28.9214502 538.16894531 28.68579102 C536.05302523 28.01676586 534.00242918 27.2486936 531.9375 26.4375 C527.15538783 24.82964946 522.3089153 24.34958605 517.3190918 23.83959961 C511.95464085 23.27614747 506.67307143 22.46175352 501.35961914 21.53588867 C465.55350426 15.36532872 427.09114777 14.48152675 391 19 Z " fill="#FEFEFE" transform="translate(0,0)"></path>
<path d="M0 0 C26.4 0 52.8 0 80 0 C80 175.89 80 351.78 80 533 C173.39 533 266.78 533 363 533 C363 554.45 363 575.9 363 598 C243.21 598 123.42 598 0 598 C0 400.66 0 203.32 0 0 Z " fill="#010201" transform="translate(279,115)"></path>
</svg></svg></g></g><defs><clipPath id="SvgjsClipPath1172"><rect width="1000" height="1000" x="0" y="0" rx="500" ry="500"></rect></clipPath></defs></svg></g><g id="dark-icon"><svg xmlns="http://www.w3.org/2000/svg" version="1.1" xmlns:xlink="http://www.w3.org/1999/xlink" width="1000" height="1000"><g clip-path="url(#SvgjsClipPath1173)"><rect width="1000" height="1000" fill="#ffffff"></rect><g transform="matrix(1.1574074074074074,0,0,1.1574074074074074,0,0)"><svg xmlns="http://www.w3.org/2000/svg" version="1.1" xmlns:xlink="http://www.w3.org/1999/xlink" width="864" height="864"><svg version="1.1" xmlns="http://www.w3.org/2000/svg" width="864" height="864">
<path d="M0 0 C285.12 0 570.24 0 864 0 C864 285.12 864 570.24 864 864 C578.88 864 293.76 864 0 864 C0 578.88 0 293.76 0 0 Z " fill="#CCFAF0" transform="translate(0,0)"></path>
<path d="M0 0 C285.12 0 570.24 0 864 0 C864 285.12 864 570.24 864 864 C578.88 864 293.76 864 0 864 C0 578.88 0 293.76 0 0 Z M391 19 C389.94828613 19.11827148 388.89657227 19.23654297 387.81298828 19.35839844 C360.47889717 22.44127914 333.08024644 28.17054884 307 37 C306.18515137 37.27215332 305.37030273 37.54430664 304.53076172 37.82470703 C271.51174511 48.97765745 237.10941679 63.65194715 209.078125 84.625 C206.80801094 86.12703036 204.55248129 87.07182499 202 88 C202 88.66 202 89.32 202 90 C201.46761719 90.24234375 200.93523437 90.4846875 200.38671875 90.734375 C184.64181496 99.08355475 170.63246073 112.41295785 157.6875 124.49609375 C155.18050305 126.83182783 152.63079468 129.10716287 150.0625 131.375 C145.40421685 135.54491476 141.01068823 139.94792133 136.62548828 144.40039062 C133.83505043 147.22002588 131.03906687 149.89241536 127.9375 152.375 C125.2141975 154.80858947 123.86275818 156.80946355 122.21875 160.01953125 C120.03748759 163.56408266 117.07210979 166.45582745 114.25 169.49609375 C111.70507826 172.32820284 109.47217029 175.29117222 107.2890625 178.40625 C106 180 106 180 103 182 C101.96052528 183.78268846 101.96052528 183.78268846 101.125 185.8125 C99.29424553 189.67435565 97.07284001 191.99862139 94 195 C89.07564736 201.34839281 85.53753054 207.38740837 83 215 C82.01 215.33 81.02 215.66 80 216 C78.86367134 217.92359275 78.86367134 217.92359275 78 220.25 C76.57146966 223.70594455 74.94005155 226.79891494 73 230 C73 230.66 73 231.32 73 232 C72.34 232 71.68 232 71 232 C70.70609375 232.804375 70.70609375 232.804375 70.40625 233.625 C68.36311515 238.97942235 65.98774908 244.09077212 63.375 249.1875 C27.33112381 320.25369707 13.70846425 402.21450766 23.68017578 481.18701172 C24.09783654 484.86051347 24.24891058 488.49269781 24.375 492.1875 C24.94146747 503.60496659 27.68023145 514.83443636 30 526 C30.66 526 31.32 526 32 526 C32.15456665 526.97138916 32.15456665 526.97138916 32.31225586 527.96240234 C33.5632137 535.355202 35.40517482 542.44864542 37.5625 549.625 C38.09194214 551.3877124 38.09194214 551.3877124 38.63208008 553.18603516 C47.89584856 583.57901916 60.08125255 612.48526842 76 640 C76.41765625 640.72380859 76.8353125 641.44761719 77.265625 642.19335938 C87.77624266 660.29687454 99.67217025 677.91552367 113.29296875 693.8359375 C114.87050773 695.83583818 115.88002659 697.73083647 117 700 C117.721875 700.5775 118.44375 701.155 119.1875 701.75 C122.95809514 704.76647611 125.86969104 708.3383707 129 712 C139.90371342 724.66237687 151.67564731 736.97689235 164.87890625 747.24609375 C166.79424334 748.82986235 168.24194285 750.3515439 169.75 752.3125 C171.79779445 754.7584767 172.92411009 755.67369194 175.625 757.125 C178.85334816 758.91852675 179.93366936 760.1071371 182 763 C182.99 763 183.98 763 185 763 C185.33 763.99 185.66 764.98 186 766 C186.99 766 187.98 766 189 766 C189.33 766.99 189.66 767.98 190 769 C192.0171818 770.80850782 193.47449941 771.8763528 196.125 772.5 C198 773 198 773 200 776 C200.99 776 201.98 776 203 776 C203 776.66 203 777.32 203 778 C204.269553 778.64834654 205.54069706 779.29357815 206.8125 779.9375 C207.87404297 780.47697266 207.87404297 780.47697266 208.95703125 781.02734375 C211.11810285 782.10730516 211.11810285 782.10730516 214 783 C214.33 783.99 214.66 784.98 215 786 C216.59542867 786.72051617 218.19844661 787.42712184 219.828125 788.06640625 C224.25580449 789.96967135 228.33924969 792.58098375 232.5 795 C278.96621056 821.53834957 330.09061942 837.78785482 383 845 C384.16998535 845.16516113 385.3399707 845.33032227 386.54541016 845.50048828 C404.46862383 847.93643313 422.3122119 848.30588404 440.375 848.375 C441.45985687 848.38294586 442.54471375 848.39089172 443.66244507 848.39907837 C459.64971717 848.48909253 475.17990842 847.28778262 491 845 C491.73432251 844.89540466 492.46864502 844.79080933 493.22521973 844.68304443 C546.2522387 837.02081571 599.41965239 820.32494724 645.46875 792.453125 C647.92327946 791.04404327 650.34858309 789.97987147 653 789 C653 788.34 653 787.68 653 787 C653.68320312 786.76152344 654.36640625 786.52304687 655.0703125 786.27734375 C658.60511866 784.73616826 661.69709372 782.71951585 664.875 780.5625 C665.52847412 780.12220459 666.18194824 779.68190918 666.85522461 779.22827148 C681.78794413 769.09018308 696.46799743 758.28230024 709.76171875 746.0546875 C711.87039527 744.11897397 714.01786328 742.24180024 716.1875 740.375 C719.39261772 737.58906267 722.38026634 734.64507892 725.3515625 731.61328125 C727 730 727 730 730 727.5625 C732.93089334 725.05902861 735.27922676 722.47334373 737.765625 719.546875 C740.09041004 716.8969452 742.49938463 714.3475062 744.92871094 711.79394531 C751.63977844 704.72303505 757.8374221 697.43510134 763.72509766 689.66894531 C764.95858662 688.05421331 766.21912451 686.46025535 767.48046875 684.8671875 C789.82863912 656.51450077 807.7563985 624.04398169 821.6875 590.8125 C822.12191406 589.77851074 822.55632813 588.74452148 823.00390625 587.67919922 C825.26404582 582.50513344 825.26404582 582.50513344 826 577 C826.66 577 827.32 577 828 577 C828.680625 575.2984375 828.680625 575.2984375 829.375 573.5625 C829.63023437 572.92441406 829.88546875 572.28632812 830.1484375 571.62890625 C830.88397253 569.35819489 831.42289267 567.16962456 831.921875 564.83984375 C833.00274569 559.81797606 834.42186741 554.92476149 835.875 550 C837.86125771 543.15844565 839.73988985 536.30944307 841.375 529.375 C841.54241699 528.67117188 841.70983398 527.96734375 841.88232422 527.2421875 C842.53263217 524.419753 843 521.90766538 843 519 C843.66 519 844.32 519 845 519 C847.47465133 507.4846225 848.77534586 496.07564178 849.69726562 484.34521484 C849.92478476 481.83112845 850.19031564 479.33605543 850.49023438 476.83056641 C852.19599008 462.18142965 852.39754838 447.61245501 852.375 432.875 C852.37468277 430.95879349 852.37468277 430.95879349 852.37435913 429.00387573 C852.34086529 408.69438486 851.36970764 389.02859672 848 369 C847.71914551 367.24067139 847.71914551 367.24067139 847.43261719 365.44580078 C840.67464156 323.56152522 827.84128996 282.66209889 808.06738281 245.04931641 C806.87315955 242.75647329 805.71387594 240.44746348 804.5546875 238.13671875 C796.05645015 221.35451181 786.44415048 205.0551881 774.671875 190.33984375 C772.97037596 187.95854019 772.05728803 185.7129561 771 183 C768.86387112 180.69955351 766.65707168 178.58406371 764.3125 176.5 C763 175 763 175 762.0625 172.4375 C760.77472124 169.48318403 759.79155422 169.35075204 757 168 C756.88011719 167.39800781 756.76023437 166.79601562 756.63671875 166.17578125 C755.76968392 163.21296897 754.24513412 162.19431341 751.875 160.25 C748.11641611 157.04449887 744.87792105 153.72068605 741.69921875 149.94921875 C739.43871953 147.35614033 736.98214821 144.99918779 734.48046875 142.640625 C733 141 733 141 732.17578125 139.046875 C730.45794805 136.05636138 727.87132202 134.86162637 725 133 C723.22886946 131.31384124 721.5003288 129.58203912 719.8125 127.8125 C715.38812718 123.26828303 710.75758605 119.18429383 705.7890625 115.23046875 C702.95174421 112.96140889 700.19819637 110.6114221 697.4375 108.25 C653.26692203 71.46960882 600.80533358 47.05408762 546 31 C544.17125385 30.46174132 542.34309388 29.92148565 540.515625 29.37890625 C539.7412207 29.15017822 538.96681641 28.9214502 538.16894531 28.68579102 C536.05302523 28.01676586 534.00242918 27.2486936 531.9375 26.4375 C527.15538783 24.82964946 522.3089153 24.34958605 517.3190918 23.83959961 C511.95464085 23.27614747 506.67307143 22.46175352 501.35961914 21.53588867 C465.55350426 15.36532872 427.09114777 14.48152675 391 19 Z " fill="#FEFEFE" transform="translate(0,0)"></path>
<path d="M0 0 C26.4 0 52.8 0 80 0 C80 175.89 80 351.78 80 533 C173.39 533 266.78 533 363 533 C363 554.45 363 575.9 363 598 C243.21 598 123.42 598 0 598 C0 400.66 0 203.32 0 0 Z " fill="#010201" transform="translate(279,115)"></path>
</svg></svg></g></g><defs><clipPath id="SvgjsClipPath1173"><rect width="1000" height="1000" x="0" y="0" rx="500" ry="500"></rect></clipPath></defs></svg></g></svg>